<?xml version="1.0" encoding="UTF-8"?>
<svg id="_Шар_1" data-name="Шар 1" xmlns="http://www.w3.org/2000/svg" xmlns:xlink="http://www.w3.org/1999/xlink" viewBox="0 0 975.84 285.13">
  <defs>
    <style>
      .cls-1 {
        fill: #ff5a2a;
      }

      .cls-2 {
        fill: #3b3b3d;
      }

      .cls-3 {
        fill: url(#_Градієнт_без_назви);
        fill-rule: evenodd;
      }
    </style>
    <linearGradient id="_Градієнт_без_назви" data-name="Градієнт без назви" x1="95.67" y1="-1361.78" x2="169.01" y2="-1358.36" gradientTransform="translate(0 -1218.51) scale(1 -1)" gradientUnits="userSpaceOnUse">
      <stop offset="0" stop-color="#fe9302"/>
      <stop offset="1" stop-color="#ff5a2a"/>
    </linearGradient>
  </defs>
  <rect class="cls-2" width="975.84" height="285.13"/>
  <g>
    <path class="cls-1" d="M777.18,198.1l48.74-110.62h49.85l9.81,110.62h-24.37l-2.06-24.49h-46.68l-10.6,24.49h-24.69ZM840.33,109.6l-18.36,41.88h35.61l-3.8-41.88h-13.45Z"/>
    <path class="cls-1" d="M799.31,87.48l-47.67,110.62h-49.56l-8.97-110.62h23.6l6.45,88.49h13.37l37.6-88.49h25.17Z"/>
    <path class="cls-1" d="M574.75,198.1l48.25-110.62h49.34l9.71,110.62h-24.12l-2.04-24.49h-46.21l-10.5,24.49h-24.44ZM637.25,109.6l-18.17,41.88h35.24l-3.76-41.88h-13.32Z"/>
    <path class="cls-1" d="M551.68,159.38l17.7,38.72h-26.55l-16.43-36.35h-22.12l-6.48,36.35h-23.7l19.44-110.62h47.72c12.33,0,22.28,3.32,29.87,9.96,7.58,6.53,11.38,14.59,11.38,24.18s-2.9,17.86-8.69,24.49c-5.8,6.64-13.17,11.06-22.12,13.27ZM508.07,139.63h30.82c6.43,0,11.17-1.42,14.22-4.27,3.16-2.95,4.74-6.9,4.74-11.85,0-4-1.58-7.32-4.74-9.96-3.16-2.63-7.74-3.95-13.75-3.95h-25.92l-5.37,30.02Z"/>
    <path class="cls-1" d="M442.21,198.1l-22.98-45.04h-17.43l-7.92,45.04h-23.77l19.49-110.62h23.77l-7.61,43.46h14.89l37.71-43.46h27.89l-45.79,52.94,28.68,57.68h-26.94Z"/>
    <path class="cls-1" d="M318.9,178.96c6.61,0,11.41-1.19,14.4-3.56,2.99-2.48,4.49-5.63,4.49-9.45,0-1.03-.26-2.01-.77-2.94-.41-.93-1.24-1.86-2.48-2.79-1.14-.93-2.22-1.7-3.25-2.32-.93-.62-2.48-1.34-4.65-2.17-2.17-.93-3.87-1.6-5.11-2.01-1.14-.52-3.1-1.24-5.89-2.17-2.68-1.03-4.59-1.76-5.73-2.17-18.69-6.71-28.03-16.26-28.03-28.65,0-9.7,3.82-18.02,11.46-24.93,7.64-7.02,17.76-10.53,30.35-10.53,6.09,0,11.56.72,16.42,2.17,4.96,1.45,8.93,3.2,11.92,5.27,2.99,2.06,5.58,4.49,7.74,7.28,2.27,2.79,3.87,5.32,4.8,7.59.93,2.17,1.65,4.39,2.17,6.66l.93,4.34h-23.69c-.41-2.27-1.5-4.34-3.25-6.19-3.92-4.13-10.07-6.19-18.43-6.19-4.75,0-8.67,1.08-11.77,3.25-2.99,2.17-4.49,4.96-4.49,8.36,0,1.76.62,3.41,1.86,4.96,1.34,1.55,3.15,2.94,5.42,4.18,2.27,1.14,4.75,2.27,7.43,3.41,2.68,1.03,5.73,2.17,9.14,3.41.83.31,1.55.57,2.17.77.62.21,1.24.41,1.86.62,18.58,6.71,27.88,16.26,27.88,28.65,0,10.01-4.03,18.53-12.08,25.55-8.05,7.02-18.74,10.53-32.06,10.53-7.12,0-13.53-.98-19.2-2.94-5.57-1.86-10.01-4.13-13.32-6.81-3.2-2.69-5.94-5.83-8.21-9.45-2.27-3.72-3.87-6.92-4.8-9.6-.83-2.79-1.44-5.58-1.86-8.36h23.85c.83,3.3,2.17,6.04,4.03,8.21,4.54,5.37,11.46,8.05,20.75,8.05Z"/>
    <path class="cls-1" d="M155.51,198.1l48.74-110.62h49.85l9.81,110.62h-24.37l-2.06-24.49h-46.69l-10.6,24.49h-24.69ZM218.66,109.6l-18.36,41.88h35.61l-3.8-41.88h-13.45Z"/>
    <path class="cls-3" d="M162.33,117.09c5.4-9.87,10.81-19.75,16.41-29.49-1.49-.01-2.98-.03-4.47-.05-6.55-.07-13.14-.15-19.67.07-1.12.98-1.84,2.46-2.54,3.88-.29.59-.58,1.17-.88,1.71-.85,1.55-1.71,3.1-2.57,4.64-2.98,5.38-5.97,10.78-8.87,16.2-.74,1.22-.54,1.71.07,2.91,4.01,6.99,7.85,14.94,8.8,23,1.04-.05,2.88-3.22,3.92-5.19-.11.23-.24.5-.37.79,3.42-6.13,6.8-12.3,10.17-18.47ZM91.98,87.49c-.58,0-1.16,0-1.74,0,4.13,8,8.52,15.88,12.91,23.76,3.48,6.24,6.95,12.47,10.29,18.76,5.02,10.34,6.11,22.44,2.66,33.43-1.45,5.11-3.88,9.37-6.39,13.76-.97,1.69-1.94,3.41-2.88,5.19-1.14,2.15-2.33,4.27-3.52,6.38-1.71,3.03-3.41,6.06-4.96,9.19,5.87.15,11.75.12,17.62.09,2.21-.01,4.42-.03,6.62-.03,1.59-2.91,3.19-5.81,4.8-8.71,2.41-4.35,4.81-8.7,7.16-13.07,8.46-15.98,8.61-35.56.29-51.63-2.84-5.23-5.72-10.44-8.6-15.65-3.94-7.12-7.88-14.24-11.71-21.41-7.52-.1-15.04-.08-22.57-.06Z"/>
  </g>
</svg>