<?xml version="1.0" encoding="UTF-8"?>
<svg id="_Шар_1" data-name="Шар 1" xmlns="http://www.w3.org/2000/svg" xmlns:xlink="http://www.w3.org/1999/xlink" viewBox="0 0 268.62 285.13">
  <defs>
    <style>
      .cls-1 {
        fill: url(#_Градієнт_без_назви);
        fill-rule: evenodd;
      }
    </style>
    <linearGradient id="_Градієнт_без_назви" data-name="Градієнт без назви" x1="95.49" y1="142.45" x2="168.82" y2="145.86" gradientTransform="translate(0 285.49) scale(1 -1)" gradientUnits="userSpaceOnUse">
      <stop offset="0" stop-color="#fe9302"/>
      <stop offset="1" stop-color="#ff5a2a"/>
    </linearGradient>
  </defs>
  <path class="cls-1" d="M162.15,116.87c5.4-9.87,10.81-19.75,16.41-29.49-1.49-.01-2.98-.03-4.47-.05-6.55-.07-13.14-.15-19.67.07-1.12.98-1.84,2.46-2.54,3.88-.29.59-.58,1.17-.88,1.71-.85,1.55-1.71,3.1-2.57,4.64-2.98,5.38-5.97,10.78-8.87,16.2-.74,1.22-.54,1.71.07,2.91,4.01,6.99,7.85,14.94,8.8,23,1.04-.05,2.88-3.22,3.92-5.19-.11.23-.24.5-.37.79,3.42-6.13,6.8-12.3,10.17-18.47ZM91.8,87.27c-.58,0-1.16,0-1.74,0,4.13,8,8.52,15.88,12.91,23.76,3.48,6.24,6.95,12.47,10.29,18.76,5.02,10.34,6.11,22.44,2.66,33.43-1.45,5.11-3.88,9.37-6.39,13.76-.97,1.69-1.94,3.41-2.88,5.19-1.14,2.15-2.33,4.27-3.52,6.38-1.71,3.03-3.41,6.06-4.96,9.19,5.87.15,11.75.12,17.62.09,2.21-.01,4.42-.03,6.62-.03,1.59-2.91,3.19-5.81,4.8-8.71,2.41-4.35,4.81-8.7,7.16-13.07,8.46-15.98,8.61-35.56.29-51.63-2.84-5.23-5.72-10.44-8.6-15.65-3.94-7.12-7.88-14.24-11.71-21.41-7.52-.1-15.04-.08-22.57-.06Z"/>
</svg>